<?xml version="1.0" encoding="UTF-8"?>
<svg version="1.1" xmlns="http://www.w3.org/2000/svg" width="316" height="336">
<path d="M0 0 C8.95780545 4.75414256 13.95704826 10.93364479 17.125 20.4375 C17.455 29.6775 17.785 38.9175 18.125 48.4375 C49.805 48.9325 49.805 48.9325 82.125 49.4375 C82.125 83.7575 82.125 118.0775 82.125 153.4375 C76.185 151.4575 70.245 149.4775 64.125 147.4375 C47.24454652 143.01642885 29.74142519 144.89080783 13.125 149.4375 C11.79240712 149.77378128 10.45954465 150.10904989 9.125 150.4375 C12.84224362 162.1484622 16.8554888 172.22112801 28.1171875 178.55859375 C40.77301203 184.70635193 54.41410333 183.67336298 68.125 183.4375 C68.22470521 189.07506289 68.29685967 194.7121 68.34472656 200.3503418 C68.36470419 202.26384434 68.39189599 204.17728692 68.42675781 206.09057617 C68.66727745 219.64102836 68.86468373 231.41427432 58.91796875 241.78515625 C51.55550217 248.57017447 44.40912095 249.92047901 34.6640625 249.74609375 C25.89619499 248.98156667 18.89743229 245.04980119 13.125 238.4375 C6.79876113 228.4622132 7.03703754 217.145584 6.5625 205.6875 C6.5200415 204.66342041 6.47758301 203.63934082 6.43383789 202.58422852 C5.83365603 185.87936805 6.04168704 169.15008076 6.125 152.4375 C3.89672317 153.52018905 1.67219004 154.60963715 -0.55078125 155.703125 C-1.17505005 156.00557129 -1.79931885 156.30801758 -2.44250488 156.61962891 C-8.25809377 159.49218313 -13.07542401 163.06934657 -17.875 167.4375 C-18.79152344 168.26121094 -19.70804688 169.08492187 -20.65234375 169.93359375 C-37.76394669 186.10628844 -45.96893546 207.65660289 -46.796875 230.85546875 C-46.85198682 233.38234573 -46.875 235.91002209 -46.875 238.4375 C-66.345 238.4375 -85.815 238.4375 -105.875 238.4375 C-105.875 216.9875 -105.875 195.5375 -105.875 173.4375 C-114.455 173.4375 -123.035 173.4375 -131.875 173.4375 C-143.90174841 169.06413694 -149.69805212 166.04349787 -154.96484375 154.8671875 C-158.08655135 146.53370196 -157.27085359 138.53433002 -153.875 130.4375 C-148.44912132 121.34759406 -142.92468797 118.45737519 -132.875 114.4375 C-123.965 114.4375 -115.055 114.4375 -105.875 114.4375 C-105.875 92.9875 -105.875 71.5375 -105.875 49.4375 C-84.755 49.1075 -63.635 48.7775 -41.875 48.4375 C-41.545 39.1975 -41.215 29.9575 -40.875 20.4375 C-36.30196305 10.14816687 -32.50983745 3.5296005 -21.875 -0.5625 C-15.15067351 -2.80394216 -6.58804293 -2.69510847 0 0 Z " fill="#2872DA" transform="translate(194.875,14.5625)"/>
<path d="M0 0 C21.45 0 42.9 0 65 0 C65 0.33 65 0.66 65 1 C43.88 1 22.76 1 1 1 C1.14164752 8.24069577 1.14164752 8.24069577 3 15 C3.07179375 16.5935352 3.07882021 18.1902061 3.0534668 19.78515625 C3.0398259 20.7795874 3.026185 21.77401855 3.01213074 22.79858398 C2.99136978 23.87567627 2.97060883 24.95276855 2.94921875 26.0625 C2.9303511 27.164729 2.91148346 28.26695801 2.89204407 29.40258789 C2.85011698 31.73621611 2.80537517 34.06979518 2.75805664 36.40332031 C2.68779571 39.98492599 2.63350612 43.56654615 2.58007812 47.1484375 C2.53743688 49.41147698 2.49384897 51.67449887 2.44921875 53.9375 C2.43453049 55.01459229 2.41984222 56.09168457 2.40470886 57.20141602 C2.38161148 58.19584717 2.3585141 59.19027832 2.3347168 60.21484375 C2.31020699 61.53150024 2.31020699 61.53150024 2.28520203 62.87475586 C2 65 2 65 0 67 C-2.79394531 67.30297852 -2.79394531 67.30297852 -6.328125 67.37890625 C-7.60300781 67.41306641 -8.87789062 67.44722656 -10.19140625 67.48242188 C-11.5442586 67.50972745 -12.89712357 67.5364146 -14.25 67.5625 C-16.88039927 67.62076229 -19.51042744 67.68636341 -22.140625 67.75390625 C-23.31141602 67.77783447 -24.48220703 67.8017627 -25.68847656 67.82641602 C-28.86405554 67.99287404 -31.87774306 68.41153817 -35 69 C-25.12494346 60.88834641 -12.89363667 65 0 65 C0 43.55 0 22.1 0 0 Z " fill="#3973C5" transform="translate(89,64)"/>
<path d="M0 0 C0.99 0.33 1.98 0.66 3 1 C1.68 1.33 0.36 1.66 -1 2 C-0.67 3.98 -0.34 5.96 0 8 C-0.33 8 -0.66 8 -1 8 C-1.02312821 15.67536627 -1.04091753 23.35072896 -1.05181217 31.02612209 C-1.05703995 34.58977422 -1.06413569 38.15340257 -1.07543945 41.71704102 C-1.08834176 45.81006097 -1.09322906 49.9030558 -1.09765625 53.99609375 C-1.10281754 55.28148544 -1.10797882 56.56687714 -1.11329651 57.89122009 C-1.11340981 59.66294334 -1.11340981 59.66294334 -1.11352539 61.47045898 C-1.115746 62.51636703 -1.11796661 63.56227509 -1.12025452 64.63987732 C-1.26650985 66.95689295 -1.26650985 66.95689295 0 68 C0.18611382 70.03838951 0.32344451 72.08131179 0.4375 74.125 C0.77406845 79.05952783 1.37462698 83.34059734 3 88 C-0.72631642 84.95119566 -1.72125858 81.3227654 -2.28442383 76.62988281 C-3.79690437 59.40990706 -4.13926899 42.12365622 -4.28610229 24.84436035 C-4.3036579 23.07743403 -4.32797812 21.3105616 -4.35916138 19.54382324 C-4.4010611 17.04326648 -4.41669673 14.54383281 -4.42578125 12.04296875 C-4.44324402 11.28982895 -4.46070679 10.53668915 -4.47869873 9.76072693 C-4.4638197 6.14109153 -4.2877157 4.35530342 -1.97338867 1.49731445 C-1.32217041 1.00320068 -0.67095215 0.50908691 0 0 Z " fill="#3B71BD" transform="translate(205,163)"/>
<path d="M0 0 C0.66 0 1.32 0 2 0 C2 20.79 2 41.58 2 63 C3.32 63.66 4.64 64.32 6 65 C4.02 65 2.04 65 0 65 C0 43.55 0 22.1 0 0 Z " fill="#3C74C2" transform="translate(89,188)"/>
<path d="M0 0 C0.66 0.33 1.32 0.66 2 1 C1.6875 2.875 1.6875 2.875 1 5 C-2 7 -2 7 -6 7 C-6 7.99 -6 8.98 -6 10 C-5.34 10.33 -4.68 10.66 -4 11 C-6.36292656 13.52588702 -7.66462511 14.88820837 -11 16 C-11.33 17.65 -11.66 19.3 -12 21 C-12.91586866 18.4943216 -13.07751859 17.25288851 -12.28515625 14.66796875 C-9.17293707 8.35404166 -5.62937609 4.2185399 0 0 Z " fill="#3471C7" transform="translate(52,133)"/>
<path d="M0 0 C0.33 0 0.66 0 1 0 C1.33 3.63 1.66 7.26 2 11 C-2.62 11 -7.24 11 -12 11 C-12.33 10.34 -12.66 9.68 -13 9 C-8.71 9 -4.42 9 0 9 C-0.185625 7.700625 -0.37125 6.40125 -0.5625 5.0625 C-0.87890625 2.84765625 -0.87890625 2.84765625 -1 1 C-0.67 0.67 -0.34 0.34 0 0 Z " fill="#3870BD" transform="translate(146,242)"/>
<path d="M0 0 C1 2 1 2 0.00390625 5.4765625 C-0.46900047 6.86197936 -0.94981644 8.24471547 -1.4375 9.625 C-1.68048828 10.33140625 -1.92347656 11.0378125 -2.17382812 11.765625 C-2.77587205 13.51273287 -3.38708017 15.25667786 -4 17 C-4.33 17 -4.66 17 -5 17 C-5.33 14.03 -5.66 11.06 -6 8 C-5.01 8 -4.02 8 -3 8 C-2.87625 7.236875 -2.7525 6.47375 -2.625 5.6875 C-2 3 -2 3 0 0 Z " fill="#3671C4" transform="translate(154,210)"/>
<path d="M0 0 C3 1.8125 3 1.8125 6 4 C6 4.99 6 5.98 6 7 C6.99 7 7.98 7 9 7 C9 7.66 9 8.32 9 9 C5.34683329 7.75023244 4.21934164 7.32901247 2 4 C-0.05925139 3.27617533 -0.05925139 3.27617533 -2 3 C-2 2.34 -2 1.68 -2 1 C-1.34 0.67 -0.68 0.34 0 0 Z " fill="#2F6EC9" transform="translate(215,188)"/>
<path d="M0 0 C0.66 0 1.32 0 2 0 C2.33 0.99 2.66 1.98 3 3 C3.66 3.66 4.32 4.32 5 5 C2.69 5.66 0.38 6.32 -2 7 C-2.33 6.01 -2.66 5.02 -3 4 C-2.34 3.67 -1.68 3.34 -1 3 C-0.67 2.01 -0.34 1.02 0 0 Z " fill="#2E72CA" transform="translate(196,162)"/>
<path d="M0 0 C3.25 -0.3125 3.25 -0.3125 7 0 C9.4375 2.5 9.4375 2.5 11 5 C6.62886504 4.49172849 3.61004338 3.54826592 0 1 C0 0.67 0 0.34 0 0 Z " fill="#346FC4" transform="translate(215,258)"/>
<path d="M0 0 C1.98 0 3.96 0 6 0 C6.66 1.98 7.32 3.96 8 6 C4.08597051 4.73058503 2.20927127 3.48832306 0 0 Z " fill="#3273C7" transform="translate(46,178)"/>
<path d="M0 0 C0.66 0.33 1.32 0.66 2 1 C-0.97 3.475 -0.97 3.475 -4 6 C-4.33 4.68 -4.66 3.36 -5 2 C-2.625 0.9375 -2.625 0.9375 0 0 Z " fill="#336DC5" transform="translate(170,186)"/>
<path d="M0 0 C1.65 0.99 3.3 1.98 5 3 C2.3260876 3.89130413 -0.23723823 4.47731534 -3 5 C-2.67 4.01 -2.34 3.02 -2 2 C-1.34 2 -0.68 2 0 2 C0 1.34 0 0.68 0 0 Z " fill="#3370C7" transform="translate(197,16)"/>
<path d="M0 0 C1.65 1.32 3.3 2.64 5 4 C4.67 4.99 4.34 5.98 4 7 C3.34 7 2.68 7 2 7 C1.34 4.69 0.68 2.38 0 0 Z " fill="#3470C5" transform="translate(202,20)"/>
<path d="" fill="#FFFFFF" transform="translate(0,0)"/>
<path d="" fill="#FFFFFF" transform="translate(0,0)"/>
<path d="" fill="#FFFFFF" transform="translate(0,0)"/>
<path d="" fill="#FFFFFF" transform="translate(0,0)"/>
<path d="" fill="#FFFFFF" transform="translate(0,0)"/>
<path d="" fill="#FFFFFF" transform="translate(0,0)"/>
<path d="" fill="#FFFFFF" transform="translate(0,0)"/>
<path d="" fill="#FFFFFF" transform="translate(0,0)"/>
<path d="" fill="#FFFFFF" transform="translate(0,0)"/>
<path d="" fill="#FFFFFF" transform="translate(0,0)"/>
<path d="" fill="#FFFFFF" transform="translate(0,0)"/>
<path d="" fill="#FFFFFF" transform="translate(0,0)"/>
<path d="" fill="#FFFFFF" transform="translate(0,0)"/>
<path d="" fill="#FFFFFF" transform="translate(0,0)"/>
<path d="" fill="#FFFFFF" transform="translate(0,0)"/>
<path d="" fill="#FFFFFF" transform="translate(0,0)"/>
<path d="" fill="#FFFFFF" transform="translate(0,0)"/>
<path d="" fill="#FFFFFF" transform="translate(0,0)"/>
<path d="" fill="#FFFFFF" transform="translate(0,0)"/>
<path d="" fill="#FFFFFF" transform="translate(0,0)"/>
<path d="" fill="#FFFFFF" transform="translate(0,0)"/>
<path d="" fill="#FFFFFF" transform="translate(0,0)"/>
<path d="" fill="#FFFFFF" transform="translate(0,0)"/>
<path d="" fill="#FFFFFF" transform="translate(0,0)"/>
<path d="" fill="#FFFFFF" transform="translate(0,0)"/>
<path d="" fill="#FFFFFF" transform="translate(0,0)"/>
<path d="" fill="#FFFFFF" transform="translate(0,0)"/>
<path d="" fill="#FFFFFF" transform="translate(0,0)"/>
<path d="" fill="#FFFFFF" transform="translate(0,0)"/>
<path d="" fill="#FFFFFF" transform="translate(0,0)"/>
<path d="" fill="#FFFFFF" transform="translate(0,0)"/>
<path d="" fill="#FFFFFF" transform="translate(0,0)"/>
<path d="" fill="#FFFFFF" transform="translate(0,0)"/>
<path d="" fill="#FFFFFF" transform="translate(0,0)"/>
<path d="" fill="#FFFFFF" transform="translate(0,0)"/>
<path d="" fill="#FFFFFF" transform="translate(0,0)"/>
<path d="" fill="#FFFFFF" transform="translate(0,0)"/>
<path d="" fill="#FFFFFF" transform="translate(0,0)"/>
<path d="" fill="#FFFFFF" transform="translate(0,0)"/>
<path d="" fill="#FFFFFF" transform="translate(0,0)"/>
<path d="" fill="#FFFFFF" transform="translate(0,0)"/>
<path d="" fill="#FFFFFF" transform="translate(0,0)"/>
<path d="" fill="#FFFFFF" transform="translate(0,0)"/>
<path d="" fill="#FFFFFF" transform="translate(0,0)"/>
<path d="" fill="#FFFFFF" transform="translate(0,0)"/>
<path d="" fill="#FFFFFF" transform="translate(0,0)"/>
<path d="" fill="#FFFFFF" transform="translate(0,0)"/>
<path d="" fill="#FFFFFF" transform="translate(0,0)"/>
<path d="" fill="#FFFFFF" transform="translate(0,0)"/>
<path d="" fill="#FFFFFF" transform="translate(0,0)"/>
<path d="" fill="#FFFFFF" transform="translate(0,0)"/>
<path d="" fill="#FFFFFF" transform="translate(0,0)"/>
<path d="" fill="#FFFFFF" transform="translate(0,0)"/>
<path d="" fill="#FFFFFF" transform="translate(0,0)"/>
<path d="" fill="#FFFFFF" transform="translate(0,0)"/>
<path d="" fill="#FFFFFF" transform="translate(0,0)"/>
<path d="" fill="#FFFFFF" transform="translate(0,0)"/>
<path d="" fill="#FFFFFF" transform="translate(0,0)"/>
<path d="" fill="#FFFFFF" transform="translate(0,0)"/>
<path d="" fill="#FFFFFF" transform="translate(0,0)"/>
<path d="" fill="#FFFFFF" transform="translate(0,0)"/>
<path d="" fill="#FFFFFF" transform="translate(0,0)"/>
<path d="" fill="#FFFFFF" transform="translate(0,0)"/>
</svg>
